<?xml version="1.0" encoding="UTF-8"?>
<!DOCTYPE svg PUBLIC "-//W3C//DTD SVG 1.1//EN" "http://www.w3.org/Graphics/SVG/1.1/DTD/svg11.dtd">
<!-- Creator: CorelDRAW 2020 (64-Bit) -->
<svg xmlns="http://www.w3.org/2000/svg" xml:space="preserve" width="281px" height="281px" version="1.1" style="shape-rendering:geometricPrecision; text-rendering:geometricPrecision; image-rendering:optimizeQuality; fill-rule:evenodd; clip-rule:evenodd"
viewBox="0 0 230.337 230.337"
 xmlns:xlink="http://www.w3.org/1999/xlink"
 xmlns:xodm="http://www.corel.com/coreldraw/odm/2003">
 <defs>
  <style type="text/css">
   <![CDATA[
    .str0 {stroke:black;stroke-width:0.465;stroke-miterlimit:22.9256}
    .fil1 {fill:black}
    .fil0 {fill:white}
   ]]>
  </style>
 </defs>
 <g id="Слой_x0020_1">
  <metadata id="CorelCorpID_0Corel-Layer"/>
  <rect class="fil0 str0" x="15.182" y="20.694" width="200.393" height="188.948" rx="26.468" ry="26.993"/>
  <g id="_2420904747680">
   <path class="fil1" d="M20.694 168.254l0 -106.171c0,-21.793 19.596,-41.389 41.389,-41.389l106.171 0c21.793,0 41.389,19.596 41.389,41.389l0 106.171c0,21.793 -19.596,41.389 -41.389,41.389l-106.171 0c-21.793,0 -41.389,-19.596 -41.389,-41.389zm-20.694 -108.42l0 110.669c0,7.124 3.104,17.491 6.148,23.544l8.811 13.683c5.263,5.518 4.017,5.117 11.642,10.852 7.925,5.959 22.957,11.755 33.233,11.755l110.669 0c7.126,0 17.489,-3.104 23.544,-6.148 17.306,-8.701 28.521,-21.607 34.095,-40.585 0.925,-3.149 2.195,-9.038 2.195,-13.101l0 -110.669c0,-3.829 -1.154,-9.536 -2.09,-12.756 -4.428,-15.242 -12.053,-25.953 -24.512,-35.323 -5.413,-4.071 -13.458,-7.6 -20.131,-9.56 -3.149,-0.925 -9.038,-2.195 -13.101,-2.195l-110.669 0c-3.829,0 -9.536,1.154 -12.756,2.09 -6.76,1.963 -14.714,5.392 -20.222,9.47 -1.599,1.184 -2.836,2.05 -4.25,3.399l-7.424 7.421c-8.084,8.691 -15.182,25.584 -15.182,37.454z"/>
   <path class="fil1" d="M76.479 116.968c0,-9.187 1.748,-16.943 6.934,-24.107 6.739,-9.311 18.228,-16.382 29.956,-16.382 12.222,0 20.836,3.066 29.129,11.359 3.094,3.094 5.999,6.541 7.702,10.744 4.998,12.334 4.998,20.838 0,33.173 -2.858,7.055 -11.653,15.697 -18.445,18.445 -12.343,4.993 -20.827,5.002 -33.173,0 -5.47,-2.216 -11.556,-7.832 -14.977,-12.466 -3.823,-5.178 -7.126,-13.837 -7.126,-20.766zm-20.694 -4.949c0,7.277 -0.138,10.95 1.888,18.356 1.773,6.482 5.114,13.628 8.91,18.983 6.128,8.645 13.456,14.591 22.942,19.346 3.164,1.586 6.215,2.763 10.082,3.864 9.539,2.717 21.213,2.709 30.768,0.096 13.464,-3.683 25.067,-11.83 33.191,-23.044 2.076,-2.865 3.556,-5.654 5.138,-8.809 16.013,-31.943 -1.022,-72.428 -38.045,-82.972 -16.889,-4.81 -35.579,-1.252 -49.68,8.744 -5.304,3.76 -10.364,8.827 -14.208,14.134 -5.817,8.029 -10.986,21.104 -10.986,31.302z"/>
   <path class="fil1" d="M161.956 53.086c0,4.848 1.361,7.863 4.151,10.694 1.437,1.459 1.77,1.999 3.778,2.97 10.606,5.129 22.212,-1.928 22.212,-13.664 0,-8.209 -7.03,-14.548 -14.885,-14.766 -4.58,-0.128 -8.641,2.292 -11.167,4.908l-2.605 3.694c-0.791,1.7 -1.484,3.848 -1.484,6.164z"/>
  </g>
 </g>
</svg>
