<?xml version="1.0" encoding="UTF-8"?>
<!DOCTYPE svg PUBLIC "-//W3C//DTD SVG 1.1//EN" "http://www.w3.org/Graphics/SVG/1.1/DTD/svg11.dtd">
<!-- Creator: CorelDRAW 2020 (64-Bit) -->
<svg xmlns="http://www.w3.org/2000/svg" xml:space="preserve" width="93px" height="93px" version="1.1" style="shape-rendering:geometricPrecision; text-rendering:geometricPrecision; image-rendering:optimizeQuality; fill-rule:evenodd; clip-rule:evenodd"
viewBox="0 0 9.567 9.567"
 xmlns:xlink="http://www.w3.org/1999/xlink"
 xmlns:xodm="http://www.corel.com/coreldraw/odm/2003">
 <defs>
  <style type="text/css">
   <![CDATA[
    .fil1 {fill:black}
    .fil0 {fill:white}
   ]]>
  </style>
 </defs>
 <g id="Слой_x0020_1">
  <metadata id="CorelCorpID_0Corel-Layer"/>
  <ellipse class="fil0" cx="4.785" cy="4.784" rx="4.31" ry="4.312"/>
  <g id="_2398810676880">
   <g id="_2371861232128">
    <path class="fil1" d="M4.783 0c2.642,0 4.784,2.142 4.784,4.783 0,2.642 -2.142,4.784 -4.784,4.784 -2.641,0 -4.783,-2.142 -4.783,-4.784 0,-2.641 2.142,-4.783 4.783,-4.783zm0 0.472c2.382,0 4.312,1.93 4.312,4.311 0,2.382 -1.93,4.312 -4.312,4.312 -2.381,0 -4.311,-1.93 -4.311,-4.312 0,-2.381 1.93,-4.311 4.311,-4.311z"/>
    <path class="fil1" d="M8.689 7.41l-0.001 0.001c0,0 0,-0.001 0.001,-0.001l0 0 0 0zm-5.852 -5.351c0.093,-0.011 0.264,-0.009 0.364,-0.007 0.12,0.003 0.177,0.072 0.222,0.154 0.073,0.132 0.362,0.865 0.45,1.071 0.043,0.102 0.091,0.179 0.042,0.298 -0.063,0.149 -0.207,0.337 -0.316,0.444 -0.046,0.046 -0.15,0.134 -0.13,0.246 0.016,0.092 0.235,0.396 0.29,0.47 0.39,0.521 0.866,0.927 1.468,1.194 0.288,0.127 0.343,0.196 0.509,-0.001l0.344 -0.416c0.05,-0.066 0.107,-0.173 0.191,-0.19 0.155,-0.031 0.892,0.361 1.067,0.447 0.328,0.161 0.377,0.144 0.363,0.4 -0.01,0.201 -0.073,0.462 -0.166,0.595 -0.166,0.237 -0.563,0.488 -0.967,0.554 -0.271,0.044 -0.434,0.019 -0.679,-0.048 -0.265,-0.071 -0.882,-0.291 -1.115,-0.406 -0.535,-0.262 -0.92,-0.557 -1.321,-0.961 -0.418,-0.421 -1.035,-1.198 -1.269,-1.772 -0.164,-0.403 -0.229,-0.823 -0.078,-1.275 0.098,-0.292 0.398,-0.757 0.731,-0.797l0 0z"/>
   </g>
  </g>
 </g>
</svg>
