<?xml version="1.0" encoding="UTF-8"?>
<!DOCTYPE svg PUBLIC "-//W3C//DTD SVG 1.1//EN" "http://www.w3.org/Graphics/SVG/1.1/DTD/svg11.dtd">
<!-- Creator: CorelDRAW 2020 (64-Bit) -->
<svg xmlns="http://www.w3.org/2000/svg" xml:space="preserve" width="105px" height="89px" version="1.1" style="shape-rendering:geometricPrecision; text-rendering:geometricPrecision; image-rendering:optimizeQuality; fill-rule:evenodd; clip-rule:evenodd"
viewBox="0 0 27.472 23.102"
 xmlns:xlink="http://www.w3.org/1999/xlink"
 xmlns:xodm="http://www.corel.com/coreldraw/odm/2003">
 <defs>
  <style type="text/css">
   <![CDATA[
    .fil1 {fill:black}
    .fil0 {fill:white}
   ]]>
  </style>
 </defs>
 <g id="Слой_x0020_1">
  <metadata id="CorelCorpID_0Corel-Layer"/>
  <polygon class="fil0" points="23.525,3.59 7.079,12.204 10.212,20.557 10.212,20.557 "/>
  <g id="_2398915258432">
   <path class="fil1" d="M8.142 12.89c2.618,-1.161 13.046,-8.731 14.731,-8.68 -0.382,0.834 -7.47,7.023 -9.113,8.622 -2.21,2.148 -2.741,1.408 -2.965,3.83 -0.104,1.139 -0.144,2.053 -0.327,3.125 -0.822,-1.16 -2.092,-5.257 -2.326,-6.897l0 0zm-8.142 -2.201c0.528,1.095 2.345,1.309 3.441,1.642 1.054,0.32 3.223,0.605 3.841,1.559 1.392,2.155 1.295,6.205 2.913,7.883 1.918,-0.125 3.134,-2.533 4.539,-3.436 3.025,1.425 5.328,4.9 7.923,4.761 1.136,-1.511 2.304,-8.862 2.883,-11.527 0.504,-2.319 2.755,-9.888 1.612,-11.566 -1.585,-0.206 -17.004,6.151 -20.655,7.549 -1.486,0.57 -5.955,1.841 -6.497,3.136l0 -0.001z"/>
  </g>
 </g>
</svg>
