<?xml version="1.0" encoding="UTF-8"?>
<!DOCTYPE svg PUBLIC "-//W3C//DTD SVG 1.1//EN" "http://www.w3.org/Graphics/SVG/1.1/DTD/svg11.dtd">
<!-- Creator: CorelDRAW 2020 (64-Bit) -->
<svg xmlns="http://www.w3.org/2000/svg" xml:space="preserve" width="85px" height="94px" version="1.1" style="shape-rendering:geometricPrecision; text-rendering:geometricPrecision; image-rendering:optimizeQuality; fill-rule:evenodd; clip-rule:evenodd"
viewBox="0 0 11.352 12.595"
 xmlns:xlink="http://www.w3.org/1999/xlink"
 xmlns:xodm="http://www.corel.com/coreldraw/odm/2003">
 <defs>
  <style type="text/css">
   <![CDATA[
    .fil1 {fill:black}
    .fil0 {fill:white}
   ]]>
  </style>
 </defs>
 <g id="Слой_x0020_1">
  <metadata id="CorelCorpID_0Corel-Layer"/>
  <ellipse class="fil0" cx="5.676" cy="5.199" rx="5.611" ry="4.514"/>
  <g id="_2398907024096">
   <path class="fil1" d="M7.101 4.846c-0.157,-0.427 -0.032,-0.708 -0.447,-0.946 -0.158,-0.09 -0.474,-0.095 -0.57,-0.159 -0.232,-0.154 -0.063,-0.352 0.258,-0.314 0.403,0.047 0.717,0.267 0.88,0.534 0.043,0.071 0.485,0.98 -0.121,0.885l0 0zm-5.126 -1.457c-0.135,-0.547 0.395,-1.003 0.657,-1.2 0.638,-0.481 0.832,-0.202 1.189,0.247 1.702,2.143 -0.167,1.455 0.097,2.411 0.379,1.372 2.039,2.46 2.561,2.156 0.429,-0.25 0.36,-1.158 1.812,-0.052 0.477,0.363 0.918,0.589 0.657,1.12 -0.15,0.304 -0.651,0.84 -1.019,0.913 -0.625,0.123 -2.224,-0.9 -2.668,-1.177 -0.799,-0.501 -1.395,-1.151 -1.967,-1.897 -0.356,-0.466 -1.155,-1.858 -1.319,-2.521l0 0zm3.764 -0.888c1.08,-0.314 2.928,1.12 2.55,2.64l-0.233 0.024c-0.202,-0.272 0.01,-1.625 -1.328,-2.16 -0.368,-0.147 -0.661,-0.126 -0.979,-0.224l-0.01 -0.28zm-0.317 -0.894c0.482,-0.243 1.686,0.174 2.225,0.529 0.319,0.21 0.763,0.635 0.979,0.953 0.378,0.56 0.745,1.764 0.626,2.282 -0.058,0.254 -0.343,0.278 -0.362,-0.235 -0.01,-0.283 -0.053,-0.583 -0.117,-0.839 -0.229,-0.928 -0.868,-1.721 -1.762,-2.106 -0.455,-0.196 -1.396,-0.264 -1.571,-0.358l-0.018 -0.226zm-2.8 8.411c0.024,0.441 -0.09,2.321 0.051,2.54 0.191,0.199 0.637,-0.463 0.729,-0.569l0.652 -0.748c0.229,-0.25 0.399,-0.519 0.639,-0.762 0.159,-0.161 -0.011,-0.113 0.638,-0.098 1.105,0.027 2.113,-0.094 3.162,-0.352 1.234,-0.303 1.912,-0.784 2.401,-1.851 0.147,-0.322 0.244,-0.702 0.307,-1.094 0.244,-1.518 0.245,-3.625 -0.396,-5.014 -0.322,-0.698 -0.723,-1.086 -1.44,-1.411 -1.972,-0.892 -7.36,-1.225 -8.717,1.283 -0.644,1.189 -0.766,3.449 -0.549,4.939 0.249,1.712 1.012,2.699 2.523,3.137l0 0z"/>
  </g>
 </g>
</svg>
