<?xml version="1.0" encoding="UTF-8"?>
<!DOCTYPE svg PUBLIC "-//W3C//DTD SVG 1.1//EN" "http://www.w3.org/Graphics/SVG/1.1/DTD/svg11.dtd">
<!-- Creator: CorelDRAW 2020 (64-Bit) -->
<svg xmlns="http://www.w3.org/2000/svg" xml:space="preserve" width="281px" height="281px" version="1.1" style="shape-rendering:geometricPrecision; text-rendering:geometricPrecision; image-rendering:optimizeQuality; fill-rule:evenodd; clip-rule:evenodd"
viewBox="0 0 80.921 80.918"
 xmlns:xlink="http://www.w3.org/1999/xlink"
 xmlns:xodm="http://www.corel.com/coreldraw/odm/2003">
 <defs>
  <style type="text/css">
   <![CDATA[
    .fil0 {fill:black}
    .fil1 {fill:whitesmoke}
   ]]>
  </style>
 </defs>
 <g id="Слой_x0020_1">
  <metadata id="CorelCorpID_0Corel-Layer"/>
  <g id="_2420911695456">
   <path class="fil0" d="M45.552 48.429c-1.286,1.889 0.684,6.855 -1.015,8.519 -1.367,1.34 -6.218,0.639 -8.058,0.142 -9.323,-2.52 -14.866,-11.165 -19.019,-19.056 -1.081,-2.055 -2.068,-4.286 -2.893,-6.64 -1.338,-3.822 -1.692,-5.658 1.608,-5.658 7.729,0 6.941,-0.504 8.648,4.079 1.187,3.187 3.515,7.781 5.376,10.485 0.909,1.322 2.398,3.631 4.487,3.27 0.481,-3.697 0.294,-6.219 0.294,-10.051 0,-2.344 -0.423,-3.387 -1.523,-4.851 -1.319,-1.755 -1.083,-2.932 1.501,-2.932 3.69,-0.012 6.07,-0.222 9.645,0.213 1.469,3.385 -0.53,13.836 1.112,15.026 1.89,1.143 5.918,-5.296 6.949,-7.052 3.52,-5.992 2.87,-8.187 6.521,-8.187 2.123,0 5.113,-0.311 6.981,0.464 0.475,2.67 -2.565,7.237 -3.765,9.092 -7.042,10.887 -5.724,5.556 1.799,15.129 1.146,1.458 6.445,7.282 0.465,7.283 -8.932,0 -6.482,0.103 -11.495,-5.194 -0.944,-0.996 -5.15,-5.279 -7.618,-4.081zm35.125 9.894c0.381,-6.148 0.345,-34.047 -0.311,-39.699 -1.601,-13.789 -7.811,-17.631 -22.043,-18.387 -6.475,-0.345 -33.836,-0.37 -39.657,0.309 -13.848,1.614 -17.661,7.768 -18.431,22.01 -0.346,6.406 -0.359,33.805 0.297,39.582 1.563,13.772 7.643,17.746 21.747,18.538 6.36,0.358 34.155,0.364 39.925,-0.297 14.022,-1.606 17.589,-7.789 18.473,-22.056z"/>
   <path class="fil1" d="M45.552 48.429c2.468,-1.198 6.674,3.085 7.618,4.081 5.013,5.297 2.563,5.194 11.495,5.194 5.98,-0.001 0.681,-5.825 -0.465,-7.283 -7.523,-9.573 -8.841,-4.242 -1.799,-15.129 1.2,-1.855 4.24,-6.422 3.765,-9.092 -1.868,-0.775 -4.858,-0.464 -6.981,-0.464 -3.651,0 -3.001,2.195 -6.521,8.187 -1.031,1.756 -5.059,8.195 -6.949,7.052 -1.642,-1.19 0.357,-11.641 -1.112,-15.026 -3.575,-0.435 -5.955,-0.225 -9.645,-0.213 -2.584,0 -2.82,1.177 -1.501,2.932 1.1,1.464 1.523,2.507 1.523,4.851 0,3.832 0.187,6.354 -0.294,10.051 -2.089,0.361 -3.578,-1.948 -4.487,-3.27 -1.861,-2.704 -4.189,-7.298 -5.376,-10.485 -1.707,-4.583 -0.919,-4.079 -8.648,-4.079 -3.3,0 -2.946,1.836 -1.608,5.658 0.825,2.354 1.812,4.585 2.893,6.64 4.153,7.891 9.696,16.536 19.019,19.056 1.84,0.497 6.691,1.198 8.058,-0.142 1.699,-1.664 -0.271,-6.63 1.015,-8.519z"/>
  </g>
 </g>
</svg>
