<?xml version="1.0" encoding="UTF-8"?>
<!DOCTYPE svg PUBLIC "-//W3C//DTD SVG 1.1//EN" "http://www.w3.org/Graphics/SVG/1.1/DTD/svg11.dtd">
<!-- Creator: CorelDRAW 2020 (64-Bit) -->
<svg xmlns="http://www.w3.org/2000/svg" xml:space="preserve" width="94px" height="94px" version="1.1" style="shape-rendering:geometricPrecision; text-rendering:geometricPrecision; image-rendering:optimizeQuality; fill-rule:evenodd; clip-rule:evenodd"
viewBox="0 0 70.082 70.078"
 xmlns:xlink="http://www.w3.org/1999/xlink"
 xmlns:xodm="http://www.corel.com/coreldraw/odm/2003">
 <defs>
  <style type="text/css">
   <![CDATA[
    .fil1 {fill:black}
    .fil0 {fill:white}
   ]]>
  </style>
 </defs>
 <g id="Слой_x0020_1">
  <metadata id="CorelCorpID_0Corel-Layer"/>
  <ellipse class="fil0" cx="35.041" cy="35.039" rx="31.282" ry="25.166"/>
  <g id="_2398907096688">
   <path class="fil1" d="M63.467 55.108l0.027 0.027c-0.001,-0.002 -0.036,-0.018 -0.027,-0.027zm0.315 -0.064l-0.131 -0.028 0.077 -0.108 0.054 0.136 0 0zm-42.876 -38.866c0.674,-0.081 1.916,-0.061 2.642,-0.044 0.875,0.019 1.288,0.516 1.62,1.12 0.528,0.958 2.635,6.287 3.273,7.792 0.313,0.738 0.66,1.295 0.301,2.158 -0.453,1.088 -1.503,2.456 -2.296,3.238 -0.333,0.328 -1.09,0.972 -0.949,1.783 0.116,0.672 1.71,2.886 2.113,3.423 2.839,3.787 6.3,6.745 10.679,8.682 2.091,0.925 2.492,1.429 3.703,-0.004l2.502 -3.029c0.361,-0.476 0.777,-1.26 1.386,-1.381 1.134,-0.226 6.489,2.626 7.767,3.253 2.385,1.171 2.74,1.044 2.64,2.908 -0.077,1.465 -0.534,3.359 -1.211,4.326 -1.208,1.726 -4.094,3.551 -7.032,4.033 -1.97,0.323 -3.16,0.137 -4.942,-0.346 -1.926,-0.522 -6.414,-2.124 -8.111,-2.956 -3.887,-1.906 -6.693,-4.053 -9.607,-6.99 -3.038,-3.062 -7.529,-8.715 -9.232,-12.893 -1.193,-2.927 -1.664,-5.984 -0.565,-9.27 0.712,-2.13 2.893,-5.51 5.319,-5.803l0 0zm-17.803 50.086c0.186,0.394 -0.084,0.78 -0.091,1.125 -0.011,0.558 0.429,0.442 0.989,0.442l0 0.18c1.146,-0.167 11.433,-3.861 11.888,-3.672 0.13,0.054 0.651,0.42 0.782,0.502 0.296,0.188 0.485,0.295 0.807,0.483 5.303,3.085 12.091,5.103 19.069,4.704 6.526,-0.374 11.465,-2.025 16.281,-4.817 2.358,-1.368 4.056,-2.785 6.037,-4.473l1.934 -1.936c0.988,-1.192 2.081,-2.398 2.982,-3.758 1.734,-2.271 3.403,-5.78 4.395,-8.596 1.182,-3.351 1.858,-7.134 1.903,-11.07 0.1,-8.731 -3.167,-17.392 -8.823,-23.602 -0.28,-0.307 -0.414,-0.555 -0.727,-0.843 -2.139,-1.967 -1.977,-2.021 -4.342,-3.862 -10.481,-8.164 -25.508,-9.384 -37.584,-3.005 -1.485,0.785 -3.607,2.135 -4.879,3.143 -6.071,4.813 -10.329,10.763 -12.471,18.505 -2.731,9.872 -0.907,20.453 4.595,28.653 0.908,1.353 0.933,0.922 0.502,2.168l-2.43 7.246c-0.269,0.776 -0.648,1.754 -0.817,2.483l0 0z"/>
  </g>
 </g>
</svg>
