<?xml version="1.0" encoding="UTF-8"?>
<!DOCTYPE svg PUBLIC "-//W3C//DTD SVG 1.1//EN" "http://www.w3.org/Graphics/SVG/1.1/DTD/svg11.dtd">
<!-- Creator: CorelDRAW 2019 (64-Bit) -->
<svg xmlns="http://www.w3.org/2000/svg" xml:space="preserve" width="520px" height="120px" version="1.1" style="shape-rendering:geometricPrecision; text-rendering:geometricPrecision; image-rendering:optimizeQuality; fill-rule:evenodd; clip-rule:evenodd"
viewBox="0 0 520 120"
 xmlns:xlink="http://www.w3.org/1999/xlink"
 xmlns:xodm="http://www.corel.com/coreldraw/odm/2003">
 <defs>
  <style type="text/css">
   <![CDATA[
    .fil0 {fill:black}
    .fil1 {fill:#BA8500}
    .fil2 {fill:#E6BA0E}
   ]]>
  </style>
 </defs>
 <g id="Слой_x0020_1">
  <metadata id="CorelCorpID_0Corel-Layer"/>
  <g id="_1352490415408">
   <path class="fil0" d="M174.56 83.38l6.62 -0.06c-0.01,-12.38 0.11,-24.23 -0.71,-36.42 0.4,0.35 0.52,0.27 0.9,1.5 0.16,0.52 0.29,1.41 0.42,2.02 1.74,7.95 5.09,20.15 6.23,26.91l4.57 0.07 6.99 -30.48c0.78,1.2 0.1,6.37 0.02,8.61 -0.12,3.19 -0.12,6.31 -0.19,9.49 -0.12,5.93 -0.08,12.2 -0.08,18.28l6.61 0.08 0 -46.62 -8.46 0c-0.97,0.27 -0.72,0.68 -1.32,3.01 -0.33,1.28 -0.62,2.39 -0.93,3.65l-3.54 14.41c-0.49,2.53 -0.71,5.42 -1.42,7.78l-2.88 -14.45c-0.85,-3.41 -2.43,-11.62 -3.66,-14.26l-9.17 -0.14 0 46.62 0 0z"/>
   <path class="fil0" d="M332.34 50.78c2.56,-1.46 4.87,0.94 5.02,3.34l-0.01 17.63c0,2.99 0.29,5.42 -1.99,6.4 -6.09,2.6 -4.98,-8.09 -4.98,-12.04 0,-3.64 -0.95,-13.68 1.96,-15.33l0 0zm5.01 -6.88l0.17 4.25c-1.82,-1.32 -6.08,-4.95 -10.32,-1.43 -5.07,4.19 -3.69,16.93 -3.69,24.68 0,7.02 2.86,14.09 10.22,12.14 2.65,-0.7 2.87,-2.01 4.41,-3.24l0.7 3.08 5.39 0.01 -0.01 -49.71 -6.87 0 0 10.22z"/>
   <path class="fil1" d="M96.23 98.01l325.5 0.05c2.12,-0.01 1.86,0.3 1.99,-1.28l-0.71 -0.38c-0.09,-0.02 -0.19,-0.05 -0.29,-0.07l-326.51 -0.04 0.02 1.72 0 0z"/>
   <path class="fil1" d="M96.23 23.66c107.4,0 215.24,-0.32 322.64,0l3.88 -0.08c1.14,-0.44 0.43,0.29 0.97,-0.83 0,0 0.54,-0.74 -1.99,-0.86l-18.02 0.05c-99.42,0 -198.83,0 -298.24,0l-7.82 -0.07c-2.01,0.19 -1.37,-0.37 -1.42,1.79l0 0z"/>
   <path class="fil0" d="M212.11 90.88l-0.06 3.96c12.62,4.23 13.59,-9.89 15.44,-19.15 0.9,-4.54 5.87,-27.46 5.92,-29.94l-6.58 0 -4.21 27.93 -5.13 -27.88 -6.92 -0.05c0.36,4.44 7.45,30.1 8.61,37.11 0.35,2.15 -0.45,4.57 -1.48,5.94 -1.43,1.88 -2.91,1.49 -5.59,2.08l0 0z"/>
   <path class="fil0" d="M304.38 58c0,-2.93 0.27,-7.43 3.45,-7.54 3.32,-0.13 3.43,4.49 3.43,7.54l0 13.05c0,10.39 -6.88,10.04 -6.88,-0.36l0 -12.69 0 0zm1.11 -12.4c-8.59,1.59 -8.26,12.79 -8.06,21.57 0.21,8.9 2.19,18.94 13.02,16.36 8.04,-1.92 7.79,-12.86 7.77,-21.65 -0.02,-9.48 -1.91,-18.29 -12.73,-16.28l0 0z"/>
   <path class="fil0" d="M278.47 58.35c0,-2.73 0.15,-7.69 3.27,-7.89 3.47,-0.22 3.61,4.57 3.61,7.54l0 10.58c0,3.5 0.46,10.11 -3.59,9.85 -3.08,-0.21 -3.29,-4.68 -3.29,-7.74l0 -12.34 0 0zm1.74 -12.88c-9.14,1.13 -8.76,11.96 -8.7,20.99 0.06,9.27 1.59,18.78 12.29,17.21 4.01,-0.59 6.28,-3.7 7.39,-7.39 1.29,-4.31 1.12,-9.01 1.12,-13.69 0,-9.38 -1.24,-18.47 -12.1,-17.12z"/>
   <polygon class="fil0" points="250.36,63.64 250.36,83.38 257.5,83.38 257.5,61.97 265.87,61.88 265.89,56.22 257.49,56.17 257.5,42.45 268.12,42.29 268.27,36.87 250.36,36.76 "/>
   <path class="fil1" d="M148.44 103.98c-2.04,0.29 -0.93,-0.33 -1.32,0.91 0.53,0.88 -0.98,0.75 1.66,0.9l224.05 -0.05 -0.01 -1.72 -224.38 -0.04z"/>
   <path class="fil1" d="M147.12 15.35l219.93 0.58c6.41,0 5.74,0.71 5.78,-1.72l-225.71 0 0 1.14z"/>
   <path class="fil1" d="M71.98 59.77l-12.55 12.55c11.43,0.97 10.4,-2.35 18.19,-9.73 1.55,-1.47 3.38,-0.87 7.22,-0.89l0.14 -4.22c-8.15,-0.04 -5.14,1.3 -12.28,-5.84 -4.89,-4.9 -3.7,-4.83 -13.07,-4.83 0.88,2.22 11.28,10.78 12.35,12.96l0 0z"/>
   <path class="fil1" d="M435.06 57.74l-0.15 4.23c4.68,0 5.87,-0.64 7.67,1.22 9.41,9.73 7.5,9.35 17.76,9.48 -1.88,-2.83 -10.58,-10.11 -12.48,-12.93l12.54 -12.57c-9.35,-0.92 -9.19,0.85 -13.08,4.74 -7.03,7.04 -4.18,5.83 -12.26,5.83l0 0z"/>
   <path class="fil2" d="M33.92 72.17c1.94,0.1 5.07,0.1 6.98,-0.15 2.34,-0.32 3.32,-1.7 4.49,-2.89 1.75,-1.77 6.3,-5.8 7.3,-7.61 -6.71,0.02 -7.82,-0.61 -11.47,3.09 -1.86,1.88 -6.13,5.64 -7.3,7.56l0 0z"/>
   <path class="fil1" d="M454.44 57.94c7.08,0 7.92,0.52 11.42,-3.01 1.8,-1.82 6.26,-5.72 7.3,-7.63 -6.9,-0.34 -8.12,-0.28 -11.48,3.1 -1.61,1.63 -6.37,5.99 -7.24,7.54l0 0z"/>
   <path class="fil1" d="M52.68 57.25c-0.81,-1.52 -5.52,-5.83 -7.08,-7.42 -3.19,-3.27 -5.08,-3.76 -11.63,-3.18 1.14,1.72 5.33,5.57 7.1,7.36 1.13,1.14 2.19,2.73 4.31,3.03 2.11,0.3 5.12,0.21 7.3,0.21l0 0z"/>
   <path class="fil1" d="M21.08 72.23c6.96,0.05 7.77,0.59 11.46,-3.24 2.33,-2.42 5.33,-4.96 7.32,-7.4 -6.13,-0.42 -8.35,-0.28 -11.48,2.88 -1.4,1.42 -6.48,5.95 -7.3,7.76z"/>
   <path class="fil1" d="M494.31 72.9l4.57 -0.04c-1.05,-1.68 -5.42,-5.65 -7.13,-7.36 -3.88,-3.89 -4.56,-3.29 -11.67,-3.3 0.97,1.87 4.43,4.74 6.1,6.4 2.21,2.22 3.23,4.3 8.13,4.3l0 0z"/>
   <path class="fil1" d="M473.28 72.93c-0.62,-1.33 -1.81,-2.18 -3.1,-3.49 -7.01,-7.09 -6.02,-7.39 -15.71,-7.18 1.36,1.95 5.2,5.38 7.13,7.31 3.96,3.97 4.35,3.39 11.68,3.36z"/>
   <path class="fil1" d="M492.88 57.94c9.61,0 8.08,0.39 15.13,-6.68 1.3,-1.3 2.8,-2.36 3.61,-3.98 -6.78,-0.19 -7.94,-0.43 -11.48,3.15 -1.76,1.78 -6.17,5.77 -7.26,7.51l0 0z"/>
   <path class="fil1" d="M511.7 72.9c-0.52,-1.08 -0.62,-1.05 -1.49,-1.89 -8.26,-8 -6.54,-9.05 -17.29,-8.74 1.68,2.2 5.01,5.12 7.14,7.26 4.02,4.05 4.25,3.37 11.64,3.37z"/>
   <path class="fil1" d="M467.19 57.94c6.24,0 8.09,0.56 11.49,-2.87l5.46 -5.47c1.36,-1.33 1.26,-0.96 1.85,-2.35 -9.84,0.04 -7.98,-0.46 -18.8,10.69l0 0z"/>
   <path class="fil2" d="M39.85 57.22c-1.65,-2.04 -4.23,-4.38 -6.19,-6.38 -4.57,-4.66 -4.34,-4.35 -12.51,-4.28 0.75,1.59 5.81,6.19 7.14,7.54 3.48,3.5 4.86,3.29 11.56,3.12l0 0z"/>
   <path class="fil1" d="M26.93 57.21c-0.44,-0.72 -8.84,-9.83 -11.11,-10.37 -1.99,-0.46 -5.36,-0.29 -7.49,-0.29 1.42,2.1 5.43,5.63 7.31,7.5 3.75,3.76 3.08,3.16 11.29,3.16z"/>
   <path class="fil2" d="M480.1 57.96c2.1,0.02 4.75,0.05 6.82,-0.2 2.69,-0.32 3.23,-1.67 4.55,-2.95 1.73,-1.71 6.05,-5.62 7.3,-7.56 -2.07,0.01 -5.25,-0.09 -7.21,0.26 -2.27,0.41 -3.01,1.96 -4.22,3.17 -1.41,1.42 -6.71,6.18 -7.24,7.28l0 0z"/>
   <path class="fil1" d="M62.1 57.12l3.37 0.1c-1.37,-0.98 -5.54,-5.63 -7.04,-7.17 -4,-4.1 -4.21,-3.5 -11.64,-3.5 0.47,1.12 -0.07,0.16 0.62,1.1l2.47 2.49c5.63,5.62 5.32,6.98 12.22,6.98z"/>
   <path class="fil1" d="M46.74 72.22c9.81,-0.03 7.76,0.5 15.12,-7.06 0.93,-0.95 2.69,-2.86 3.62,-3.49 -2.04,-0.36 -4.75,-0.18 -6.82,0.06 -2.73,0.3 -3.03,1.45 -4.43,2.85 -2.04,2.04 -5.85,5.36 -7.49,7.64l0 0z"/>
   <path class="fil1" d="M8.29 72.1c1.7,0.24 5.49,0.17 7.19,-0.12 3.4,-0.6 8.57,-8.6 11.55,-10.29 -1.91,-0.39 -5.11,-0.2 -7.1,0.06 -2.3,0.31 -3.19,1.84 -4.33,2.99 -2.51,2.52 -4.99,4.76 -7.31,7.36z"/>
   <path class="fil2" d="M486.05 72.76l-7.31 -7.29c-1.28,-1.28 -1.87,-2.66 -4.3,-3.03 -1.89,-0.28 -5.28,-0.4 -7.13,-0.09 4.24,3.23 8.36,9.78 11.58,10.32 1.69,0.29 5.51,0.38 7.16,0.09z"/>
  </g>
 </g>
</svg>
